<?xml version="1.0" encoding="UTF-8" standalone="no"?>
<svg width="120" height="60" viewBox="0 0 120 60" xmlns="http://www.w3.org/2000/svg">
  <style>
    .dark-blue { fill: #293376; }
    .light-blue { fill: #1978B5; }
    .text { fill: #1978B5; font-family: Arial, sans-serif; font-size: 7px; font-weight: bold; }
  </style>
  
  <!-- SMG Letters -->
  <g>
    <!-- S -->
    <path class="dark-blue" d="M19,13 C13,11 9,15 9,20 C9,24 15,26 20,28 C23,30 23,34 19,36 C14,38 10,35 8,32 L13,29 C14,31 16,33 19,32 C22,31 21,27 16,25 C10,22 4,20 4,14 C4,10 8,7 15,9 C21,11 23,15 23,15 L17,18 C17,18 16,14 14,13 C12,12 11,12 11,14 C11,16 14,16 19,13"/>
    
    <!-- M -->
    <path class="light-blue" d="M28,10 L36,10 L42,23 L48,10 L56,10 L56,45 L48,45 L48,25 L42,38 L36,25 L36,45 L28,45 Z"/>
    
    <!-- G -->
    <path class="dark-blue" d="M83,13 C77,10 70,10 67,14 C64,18 64,26 67,30 C71,34 80,32 83,26 L83,20 L70,20 L70,25 L75,25 C73,29 66,29 64,26 C61,23 64,17 67,15 C70,13 73,14 76,17 L83,13 C76,7 68,7 62,12 C56,17 56,28 62,32 C67,36 83,32 85,26 L85,10 L65,10 L65,13 Z"/>
  </g>
  
  <!-- SYNERGIE MARKETING GROUP -->
  <text x="60" y="52" class="text" text-anchor="middle">SYNERGIE MARKETING GROUP</text>
</svg>