<svg width="500" height="500" viewBox="0 0 500 500" xmlns="http://www.w3.org/2000/svg">
  <g fill="none" fill-rule="evenodd">
    <path d="M63.5 175.5c-5.9-1.8-12.3-2.7-19-2.7-24 0-40.5 11.5-40.5 35.2 0 25.7 19 35.2 40.5 35.2 7.2 0 13.5-1 19-2.7v-24.8c-4 2.4-8.5 3.7-13.4 3.7-10.3 0-17.6-4.6-17.6-15 0-10.4 7.3-14.9 17.6-14.9 5 0 9.4 1.3 13.4 3.7v-17.7z" fill="#363377"/>
    <path d="M153.2 175.5L96.9 240.9v-68h-26.7v138.3l26.7-21.5 56.3-65.3v66.9h26.7V174.4l-26.7 21.5v-20.4z" fill="#363377"/>
    <path d="M189.9 243.3L270.3 175l-47.5 89.6 44.7-1.7-77.3 67.2 43.9-86.8h-44.2z" fill="#1E88C9"/>
    <path d="M305.3 244.7c0-24-17.2-29.6-36.1-32.9-11.3-2-17.6-3.3-17.6-9.6 0-5.1 7.4-7.5 13.4-7.5 8.7 0 16.4 2.7 23.4 8l10.4-21c-8.1-5.8-19.8-8.8-33.4-8.8-22.5 0-40.5 9.8-40.5 31.8 0 21.5 15.8 27.8 35 31.1 12.6 2.3 18.7 3.6 18.7 10.4 0 5.6-6.4 8.6-14.5 8.6-10.6 0-20.1-3.3-28.9-10.1l-10.9 20.7c9.8 8 25.1 12 39.4 12 25.4 0 41.6-11.3 41.6-32.7" fill="#363377"/>
  </g>
  <text x="25" y="325" font-family="Arial, sans-serif" font-size="20" font-weight="bold" fill="#1E88C9">SYNERGIE MARKETING GROUP</text>
</svg>