<svg width="800" height="300" viewBox="0 0 800 300" xmlns="http://www.w3.org/2000/svg">
  <g fill="none" fill-rule="evenodd">
    <!-- S -->
    <path d="M119.5 81.5c-15.9-5.8-33.3-8.7-51.5-8.7-65 0-109.5 37.5-109.5 115.2 0 83.7 51.5 115.2 109.5 115.2 19.5 0 36.5-3.3 51.5-8.7v-81.8c-11 7.8-23 12.1-36.5 12.1-28 0-47.5-15-47.5-49 0-34 19.5-49 47.5-49 13.5 0 25.5 4.3 36.5 12.1V81.5z" fill="#363377"/>
    <!-- N -->
    <path d="M354.2 81.5L190.9 244.9v-222h-72.7v452.3l72.7-70.5 163.3-213.3v218.9h72.7V79.4l-72.7 70.5v-68.4z" fill="#363377"/>
    <!-- M -->
    <path d="M429.9 242.3l218-223.3-128.5 293.6 121.7-5.7-209.3 220.2 118.9-284.8h-120.8z" fill="#1E88C9"/>
    <!-- G -->
    <path d="M735.3 243.7c0-78.5-46.2-97-97.1-108-30.3-6.5-47.6-11-47.6-31.5 0-16.5 20-24.5 36.4-24.5 23.7 0 44.4 9 63.4 26l28.4-69c-22.1-19-53.8-29-90.4-29-61 0-110 32-110 104 0 70.5 43 91 94.5 102 34 7.5 50.5 12 50.5 34 0 18.5-17.5 28-39.5 28-28.5 0-54.5-11-78.5-33l-29.5 68c26.5 26.5 68 39.5 107 39.5 69 0 112.5-37 112.5-107" fill="#363377"/>
  </g>
  <text x="50" y="280" font-family="Arial, sans-serif" font-size="48" font-weight="bold" fill="#1E88C9">SYNERGIE MARKETING GROUP</text>
</svg>