<?xml version="1.0" encoding="UTF-8" standalone="no"?>
<svg width="800" height="300" viewBox="0 0 800 300" xmlns="http://www.w3.org/2000/svg">
  <g fill="none">
    <!-- SMG letters in the logo -->
    <path d="M107.5 70c-14-5-29-7.5-45-7.5-57 0-96 33-96 101s39 101 96 101c17 0 32-2.5 45-7.5v-71c-9.5 7-20 10.5-31.5 10.5-24.5 0-41.5-13-41.5-43s17-43 41.5-43c11.5 0 22 3.5 31.5 10.5V70z" fill="#363377"/>
    <path d="M307 70L163 215v-195h-63v395l63-61.5L307 190v191h63V68.5l-63 61.5V70z" fill="#363377"/>
    <path d="M390 211l190-195-112 256 106-5-183 192 104-248H390z" fill="#1E88C9"/>
    <path d="M648 212c0-68.5-40.5-84.5-85-94.5-26.5-5.5-41.5-9.5-41.5-27.5s17.5-21.5 32-21.5c20.5 0 38.5 8 55.5 22.5l24.5-60c-19-16.5-47-25.5-79-25.5-53 0-96 28-96 91s37.5 79.5 82.5 89c29.5 6.5 44 10.5 44 30s-15.5 24.5-34.5 24.5c-25 0-47.5-9.5-68.5-29l-26 59.5c23 23 59.5 34.5 93.5 34.5 60 0 98.5-32.5 98.5-93.5z" fill="#363377"/>
    
    <!-- SYNERGIE MARKETING GROUP text -->
    <path d="M81.42 280c-1.63 0-3.22-.2-4.78-.6a12.4 12.4 0 0 1-4.1-1.85 9.4 9.4 0 0 1-2.88-3.1c-.71-1.24-1.07-2.72-1.07-4.43 0-1.9.4-3.51 1.2-4.83.8-1.32 1.87-2.4 3.22-3.23 1.35-.83 2.9-1.44 4.65-1.83 1.75-.39 3.58-.58 5.5-.58 1.44 0 2.86.11 4.26.33 1.4.22 2.55.52 3.43.9v-1.08c0-2.05-.61-3.66-1.82-4.8-1.22-1.15-3.04-1.73-5.46-1.73-1.75 0-3.44.2-5.09.6-1.64.4-3.3.97-4.96 1.7l-1.72-3.93c2-.88 4-1.54 6-1.98 2-.44 4.05-.66 6.17-.66 4.11 0 7.27 1.03 9.47 3.08 2.2 2.05 3.31 5.03 3.31 8.94v8.37c0 .71.14 1.2.42 1.47.28.27.73.43 1.37.46v4c-.52.09-1 .15-1.45.18-.45.03-.83.05-1.15.05-1.44 0-2.53-.3-3.3-.9-.77-.6-1.24-1.36-1.42-2.28l-.18-1.08c-1.32 1.39-2.93 2.45-4.82 3.15-1.9.71-3.83 1.07-5.8 1.07zm1.26-3.83c1.44 0 2.79-.2 4.05-.6 1.26-.4 2.31-.93 3.14-1.58.83-.65 1.25-1.36 1.25-2.13v-3.9c-.88-.35-1.9-.62-3.05-.81a21.5 21.5 0 0 0-3.59-.3c-2.32 0-4.2.44-5.66 1.33-1.46.88-2.2 2.08-2.2 3.6 0 1.4.53 2.51 1.58 3.33a6.14 6.14 0 0 0 4.48 1.23zm29.56 3.33h-6.83v-27.71h-4.44v-4.13h4.44v-2.16c0-3.4.85-5.97 2.55-7.71 1.7-1.74 4.03-2.6 7-2.6.84 0 1.65.05 2.43.15.78.1 1.5.28 2.16.53l-.47 4c-.5-.18-1.02-.31-1.58-.4-.56-.09-1.17-.14-1.83-.14-1.48 0-2.57.51-3.28 1.53-.7 1.01-1.05 2.4-1.05 4.19v2.58h7v4.13h-7v27.71zm20.57 0h-6.83v-31.84h6.83v31.84zm-3.34-36.77c-1.28 0-2.35-.36-3.22-1.08-.87-.72-1.3-1.69-1.3-2.9 0-1.22.43-2.19 1.3-2.91.87-.72 1.94-1.08 3.22-1.08 1.27 0 2.34.36 3.2 1.08.86.72 1.3 1.69 1.3 2.9 0 1.22-.44 2.19-1.3 2.91-.86.72-1.93 1.08-3.2 1.08zm29.07 36.77h-5.58l-10.08-31.84h7.2l6.2 22.36 6.28-22.36h6.83l-10.85 31.84zm21.78 0h-6.84v-31.84h6.84v31.84zm-3.35-36.77c-1.27 0-2.35-.36-3.22-1.08-.87-.72-1.3-1.69-1.3-2.9 0-1.22.43-2.19 1.3-2.91.87-.72 1.95-1.08 3.22-1.08 1.28 0 2.35.36 3.22 1.08.87.72 1.3 1.69 1.3 2.9 0 1.22-.43 2.19-1.3 2.91-.87.72-1.94 1.08-3.22 1.08zm34.48 15.7v21.07h-6.84v-19.97c0-2.88-.44-4.94-1.32-6.18-.88-1.24-2.31-1.86-4.3-1.86-1.04 0-2.13.24-3.26.7-1.14.48-2.17 1.1-3.1 1.89a10.6 10.6 0 0 0-2.34 2.74v22.68h-6.84v-31.84h6.3l.36 4.8a12.5 12.5 0 0 1 4.82-4.14c1.87-.95 4-1.43 6.4-1.43 1.87 0 3.45.29 4.72.88 1.28.59 2.3 1.44 3.08 2.55a10.2 10.2 0 0 1 1.6 4.05c.3 1.59.44 3.38.44 5.36zm19.25 21.77c-2.36 0-4.57-.38-6.66-1.13a15.73 15.73 0 0 1-5.26-3.15l3.16-3.33c1.2 1.04 2.57 1.85 4.1 2.43a13.73 13.73 0 0 0 4.66.88c2 0 3.47-.38 4.42-1.15.95-.77 1.43-1.72 1.43-2.85 0-.97-.4-1.75-1.2-2.33-.8-.59-2.33-1.13-4.6-1.63l-2.88-.6a20.55 20.55 0 0 1-3.88-1.2 12.24 12.24 0 0 1-3.14-1.93 8.4 8.4 0 0 1-2.07-2.8c-.5-1.1-.75-2.39-.75-3.85 0-1.57.32-3 .97-4.28.65-1.28 1.55-2.37 2.7-3.28a12.2 12.2 0 0 1 4.05-2.03c1.57-.47 3.28-.7 5.15-.7 2.4 0 4.48.34 6.25 1.02 1.78.69 3.39 1.74 4.84 3.16l-3.2 3.27c-1.12-1-2.39-1.76-3.83-2.28a11.81 11.81 0 0 0-4.24-.8c-1.67 0-3.07.35-4.2 1.05-1.12.7-1.68 1.66-1.68 2.85 0 .53.08 1 .24 1.4.16.41.46.77.9 1.08.44.3 1.03.58 1.77.83.74.24 1.7.5 2.87.75l2.89.6c1.55.31 2.95.72 4.19 1.23a9.87 9.87 0 0 1 3.2 1.95 8 8 0 0 1 2.04 2.85c.47 1.13.7 2.46.7 4 0 1.57-.33 2.97-.97 4.2-.65 1.24-1.57 2.3-2.76 3.17a12.77 12.77 0 0 1-4.22 1.93c-1.63.43-3.42.65-5.36.65zm35.58 0c-2.67 0-5.07-.56-7.2-1.68a12.41 12.41 0 0 1-4.96-4.83c-1.2-2.1-1.8-4.6-1.8-7.5 0-2.9.6-5.4 1.8-7.52a12.41 12.41 0 0 1 4.96-4.82c2.13-1.13 4.53-1.7 7.2-1.7 2.67 0 5.07.57 7.2 1.7a12.41 12.41 0 0 1 4.96 4.82c1.2 2.11 1.8 4.62 1.8 7.51 0 2.9-.6 5.4-1.8 7.5a12.41 12.41 0 0 1-4.95 4.83c-2.14 1.12-4.54 1.69-7.21 1.69zm0-4.7c2.72 0 4.8-.88 6.24-2.66 1.44-1.77 2.16-4.16 2.16-7.17 0-3.01-.72-5.4-2.16-7.18-1.44-1.77-3.52-2.66-6.24-2.66-2.73 0-4.8.89-6.24 2.66-1.44 1.78-2.16 4.17-2.16 7.18 0 3-.72 5.4-2.16 7.17 1.43 1.78 3.51 2.66 6.24 2.66zm44.52 3.23l-9.9-14.3-4.43 4.2v10.1h-6.83v-45h6.83v27.17l13.58-14.04h8.03l-12.2 12.48 13.04 19.39h-8.11zm42.73-14.62h-22.72c.2 2.72 1.14 4.9 2.82 6.54 1.67 1.64 3.81 2.46 6.42 2.46 1.59 0 3.04-.27 4.36-.83a10.2 10.2 0 0 0 3.4-2.38l3.94 3.5c-1.51 1.8-3.36 3.16-5.53 4.1-2.17.94-4.47 1.4-6.89 1.4-2.79 0-5.3-.55-7.5-1.65a12.93 12.93 0 0 1-5.27-4.78c-1.27-2.08-1.91-4.6-1.91-7.54 0-2.95.6-5.48 1.8-7.6a12.96 12.96 0 0 1 4.88-4.93c2.07-1.16 4.38-1.75 6.92-1.75 2.52 0 4.75.55 6.72 1.63a11.45 11.45 0 0 1 4.6 4.7c1.1 2.05 1.66 4.5 1.66 7.36 0 .3-.02.61-.06.93-.03.32-.09.62-.17.9zm-20.34-9.3a8.02 8.02 0 0 0-2.34 5.28h15.82c-.08-2.1-.74-3.82-1.98-5.18-1.24-1.36-2.92-2.03-5.06-2.03-2.31 0-4.2.65-5.65 1.96zm42.73 23.92h-5.58l-10.08-31.84h7.2l6.2 22.36 6.28-22.36h6.83l-10.85 31.84zm32.3-31.84h6.84v31.84h-6.31l-.35-4.38a11.9 11.9 0 0 1-4.84 3.85c-1.94.9-4.12 1.35-6.52 1.35-1.87 0-3.45-.3-4.74-.9a7.94 7.94 0 0 1-3.08-2.55 10.66 10.66 0 0 1-1.6-4.08c-.3-1.6-.44-3.39-.44-5.36v-19.77h6.83v19.98c0 2.87.44 4.93 1.33 6.17.89 1.24 2.32 1.86 4.3 1.86 1.04 0 2.12-.22 3.25-.65 1.13-.43 2.15-1.03 3.08-1.8a8.13 8.13 0 0 0 2.25-2.76v-22.8zm45.72 15.14v16.7h-6.84v-31.84h6.31l.35 4.08a12.42 12.42 0 0 1 4.32-3.6c1.8-.9 3.88-1.36 6.21-1.36 2.16 0 4.01.44 5.57 1.33 1.56.88 2.81 2.03 3.76 3.45.94 1.42 1.63 3 2.07 4.75.43 1.75.64 3.5.64 5.27v17.92h-6.83v-17.18c0-1.7-.22-3.17-.65-4.42a6.42 6.42 0 0 0-2.14-2.9c-.97-.7-2.25-1.06-3.82-1.06a9.34 9.34 0 0 0-4.26 1 9.43 9.43 0 0 0-3.34 2.78v-4.07h-1.35v9.15zm62.76-9.15h-11.7v25.85h-6.84v-25.85H539.4v-5.99h6.83v-3.53c0-3.36.85-5.93 2.55-7.69 1.7-1.76 4.09-2.63 7.14-2.63 1 0 1.96.1 2.9.3.94.2 1.78.5 2.52.9l-1.3 5.1a8.24 8.24 0 0 0-1.7-.5c-.6-.13-1.18-.2-1.75-.2-1.23 0-2.16.38-2.78 1.15-.62.77-.93 1.8-.93 3.1v3.98h11.7v5.99zm15.13 26.85c-2.24 0-4.33-.3-6.27-.9a15.74 15.74 0 0 1-5.3-2.86l2.58-4.8a15.8 15.8 0 0 0 4.38 2.43c1.7.6 3.38.9 5.06.9 1.8 0 3.1-.3 3.9-.9.8-.6 1.19-1.37 1.19-2.33 0-.8-.33-1.45-1-1.93-.67-.48-1.48-.85-2.43-1.1a37.07 37.07 0 0 0-3.08-.7 47.54 47.54 0 0 1-5-1.45 9.62 9.62 0 0 1-3.77-2.4c-1.03-1.07-1.54-2.56-1.54-4.48 0-1.7.43-3.23 1.3-4.57a9.07 9.07 0 0 1 3.87-3.26c1.7-.8 3.77-1.2 6.21-1.2 1.87 0 3.67.23 5.39.68 1.71.45 3.3 1.13 4.77 2.03l-2.52 4.8a15.41 15.41 0 0 0-7.7-2.51c-1.72 0-2.98.3-3.8.88-.8.59-1.21 1.36-1.21 2.31 0 .8.33 1.44 1 1.93.67.49 1.5.88 2.49 1.18.98.3 2.02.57 3.1.8 1.96.36 3.67.81 5.16 1.36 1.48.55 2.65 1.33 3.52 2.35.87 1.03 1.3 2.45 1.3 4.28 0 1.65-.44 3.15-1.3 4.5a9.12 9.12 0 0 1-3.85 3.23c-1.68.8-3.72 1.2-6.13 1.2zM649.32 280c-2.67 0-5.07-.56-7.2-1.68a12.41 12.41 0 0 1-4.96-4.83c-1.2-2.1-1.8-4.6-1.8-7.5 0-2.9.6-5.4 1.8-7.52a12.41 12.41 0 0 1 4.96-4.82c2.13-1.13 4.53-1.7 7.2-1.7 2.67 0 5.07.57 7.2 1.7a12.41 12.41 0 0 1 4.96 4.82c1.2 2.11 1.8 4.62 1.8 7.51 0 2.9-.6 5.4-1.8 7.5a12.41 12.41 0 0 1-4.96 4.83c-2.13 1.12-4.53 1.69-7.2 1.69zm0-4.7c2.71 0 4.8-.88 6.24-2.66 1.44-1.77 2.16-4.16 2.16-7.17 0-3.01-.72-5.4-2.16-7.18-1.44-1.77-3.53-2.66-6.24-2.66-2.72 0-4.8.89-6.24 2.66-1.44 1.78-2.16 4.17-2.16 7.18 0 3-.72 5.4-2.16 7.17 1.44 1.78 3.52 2.66 6.24 2.66zm35.57 3.23h-5.57l-10.09-31.84h7.2l6.2 22.36 6.29-22.36h6.82l-10.85 31.84zm32.3 1.47c-2.67 0-5.07-.56-7.2-1.68a12.41 12.41 0 0 1-4.96-4.83c-1.2-2.1-1.8-4.6-1.8-7.5 0-2.9.6-5.4 1.8-7.52a12.41 12.41 0 0 1 4.96-4.82c2.13-1.13 4.53-1.7 7.2-1.7 2.67 0 5.07.57 7.2 1.7a12.41 12.41 0 0 1 4.96 4.82c1.2 2.11 1.8 4.62 1.8 7.51 0 2.9-.6 5.4-1.8 7.5a12.41 12.41 0 0 1-4.96 4.83c-2.13 1.12-4.53 1.69-7.2 1.69zm0-4.7c2.71 0 4.8-.88 6.24-2.66 1.44-1.77 2.16-4.16 2.16-7.17 0-3.01-.72-5.4-2.16-7.18-1.44-1.77-3.53-2.66-6.24-2.66-2.72 0-4.8.89-6.24 2.66-1.44 1.78-2.16 4.17-2.16 7.18 0 3-.72 5.4-2.16 7.17 1.44 1.78 3.52 2.66 6.24 2.66zm34.63 3.23h-6.84v-31.84h6.3l.36 4.8a12.5 12.5 0 0 1 4.82-4.14c1.87-.95 4-1.43 6.4-1.43 1.87 0 3.45.29 4.72.88 1.28.59 2.3 1.44 3.08 2.55a10.2 10.2 0 0 1 1.6 4.05c.3 1.59.44 3.38.44 5.36v19.77h-6.84v-19.97c0-2.88-.44-4.94-1.32-6.18-.88-1.24-2.31-1.86-4.3-1.86-1.04 0-2.13.24-3.26.7-1.14.48-2.17 1.1-3.1 1.89a10.6 10.6 0 0 0-2.34 2.74v22.68z" fill="#1E88C9"/>
  </g>
</svg>