<?xml version="1.0" encoding="UTF-8" standalone="no"?>
<svg width="460" height="200" viewBox="0 0 460 200" xmlns="http://www.w3.org/2000/svg">
  <g fill="none">
    <!-- SMG -->
    <path d="M63.5 45.5c-5.9-1.8-12.3-2.7-19-2.7-24 0-40.5 11.5-40.5 35.2 0 25.7 19 35.2 40.5 35.2 7.2 0 13.5-1 19-2.7v-24.8c-4 2.4-8.5 3.7-13.4 3.7-10.3 0-17.6-4.6-17.6-15 0-10.4 7.3-14.9 17.6-14.9 5 0 9.4 1.3 13.4 3.7V45.5z" fill="#363377"/>
    <path d="M153.2 45.5L96.9 110.9v-68h-26.7v138.3l26.7-21.5 56.3-65.3v66.9h26.7V44.4l-26.7 21.5V45.5z" fill="#363377"/>
    <path d="M189.9 113.3L270.3 45l-47.5 89.6 44.7-1.7-77.3 67.2 43.9-86.8h-44.2z" fill="#1E88C9"/>
    <path d="M305.3 114.7c0-24-17.2-29.6-36.1-32.9-11.3-2-17.6-3.3-17.6-9.6 0-5.1 7.4-7.5 13.4-7.5 8.7 0 16.4 2.7 23.4 8l10.4-21c-8.1-5.8-19.8-8.8-33.4-8.8-22.5 0-40.5 9.8-40.5 31.8 0 21.5 15.8 27.8 35 31.1 12.6 2.3 18.7 3.6 18.7 10.4 0 5.6-6.4 8.6-14.5 8.6-10.6 0-20.1-3.3-28.9-10.1l-10.9 20.7c9.8 8 25.1 12 39.4 12 25.4 0 41.6-11.3 41.6-32.7" fill="#363377"/>
  </g>
  <!-- SYNERGIE MARKETING GROUP text -->
  <path d="M46 170c-1 0-1.9-.1-2.8-.3a7.3 7.3 0 0 1-2.4-1 5.5 5.5 0 0 1-1.7-1.8c-.4-.7-.6-1.6-.6-2.6 0-1.1.2-2 .7-2.8.5-.8 1.1-1.4 1.9-1.9.8-.5 1.7-.8 2.7-1 1-.2 2.1-.4 3.2-.4.9 0 1.7.1 2.5.2.8.1 1.5.3 2 .5v-.6c0-1.2-.3-2.1-1-2.8-.7-.7-1.8-1-3.2-1-1 0-2 .1-3 .3-1 .3-1.9.6-2.9 1l-1-2.3c1.2-.5 2.4-.9 3.6-1.2 1.2-.2 2.4-.4 3.6-.4 2.4 0 4.3.6 5.6 1.8 1.3 1.2 1.9 3 1.9 5.3v4.9c0 .4.1.7.3.9.1.1.4.2.8.2v2.4a7 7 0 0 1-1.5.1c-.9 0-1.5-.2-2-.5a2 2 0 0 1-.8-1.4l-.1-.6c-.8.8-1.7 1.4-2.8 1.8-1.1.4-2.3.6-3.4.6zm.7-2.2c.9 0 1.7-.1 2.4-.4.7-.2 1.4-.5 1.9-.9.5-.4.7-.8.7-1.3v-2.3c-.5-.2-1.1-.3-1.8-.5a12.7 12.7 0 0 0-2.1-.2c-1.4 0-2.5.3-3.3.8-.9.5-1.3 1.2-1.3 2.1 0 .8.3 1.5.9 2 .6.4 1.5.7 2.6.7zm17.4 2h-4V153h-2.6v-2.5h2.6v-1.2c0-2 .5-3.5 1.5-4.6 1-1 2.4-1.5 4.1-1.5l2.7.4--.3 2.4c-.6-.2-1.3-.3-2-.3-.9 0-1.5.3-2 .9-.4.6-.6 1.4-.6 2.5v1.5h4.1v2.4h-4.1v16.3zm12 0h-4v-18.7h4v18.7zm-2-21.6a2.5 2.5 0 0 1-3.2 0c-.4-.4-.6-1-.6-1.7 0-.7.2-1.3.6-1.7.5-.4 1.1-.6 1.9-.6.7 0 1.4.2 1.8.6.5.4.7 1 .7 1.7 0 .7-.2 1.3-.7 1.7-.4.4-1 .6-1.8.6zm17 21.6h-3.3l-5.9-18.7h4.2l3.7 13.2 3.7-13.2h4l-6.4 18.7zm12.8 0h-4v-18.7h4v18.7zm-2-21.6a2.5 2.5 0 0 1-3.2 0c-.4-.4-.6-1-.6-1.7 0-.7.2-1.3.6-1.7.5-.4 1.1-.6 1.9-.6.7 0 1.4.2 1.8.6.5.4.7 1 .7 1.7 0 .7-.2 1.3-.7 1.7-.4.4-1 .6-1.8.6zm20.3 9.2v12.4h-4v-11.7c0-1.7-.2-3-.8-3.7-.5-.7-1.3-1-2.5-1a5 5 0 0 0-3.7 1.5 6.3 6.3 0 0 0-1.4 1.6v13.3h-4v-18.7h3.7l.2 2.8a7.4 7.4 0 0 1 2.8-2.4c1.1-.6 2.3-.8 3.8-.8 1.1 0 2 .1 2.8.5a4 4 0 0 1 1.8 1.5c.3.7.5 1.5.8 2.4.2.9.3 2 .3 3.2zm11.3 12.8a9.2 9.2 0 0 1-7-2.5l1.9-2c.7.6 1.5 1.1 2.4 1.4.9.4 1.8.5 2.7.5 1.2 0 2-.2 2.6-.7.6-.4.9-1 .9-1.7 0-.5-.2-1-.7-1.3-.5-.4-1.4-.7-2.7-1l-1.7-.3c-.9-.2-1.6-.5-2.3-.7a5.7 5.7 0 0 1-3-2.8c0-.6-.2-1.4-.3-2.2 0-1 .2-1.8.5-2.5a6 6 0 0 1 1.6-2c.7-.5 1.4-1 2.4-1.2.9-.3 1.9-.4 3-.4a11 11 0 0 1 6.5 2.5l-1.9 1.9c-.7-.6-1.4-1-2.2-1.3-.9-.3-1.7-.5-2.5-.5-1 0-1.8.2-2.5.6-.7.4-1 1-1 1.7 0 .3 0 .6.1.8.1.2.3.5.5.6.3.2.6.4 1 .5a17 17 0 0 0 1.7.4l1.7.4c1 .2 1.8.4 2.5.7a7 7 0 0 1 1.9 1.1c.5.5.9 1 1.2 1.7.3.7.4 1.4.4 2.3 0 .9-.2 1.8-.5 2.5a5.5 5.5 0 0 1-1.7 1.9 7.5 7.5 0 0 1-2.5 1.1c-1 .3-2 .4-3.1.4zm20.9 0a9.2 9.2 0 0 1-7-4.4c-.7-1.3-1-2.7-1-4.4 0-1.7.3-3.2 1-4.4a7.3 7.3 0 0 1 3-2.8c1.2-.7 2.6-1 4.2-1 1.6 0 3 .3 4.2 1a7.3 7.3 0 0 1 3 2.8c.7 1.2 1 2.7 1 4.4 0 1.7-.3 3.2-1 4.4a7.3 7.3 0 0 1-3 2.8c-1.3.7-2.7 1-4.3 1zm0-2.8c1.6 0 2.8-.5 3.7-1.6.8-1 1.3-2.4 1.3-4.2 0-1.8-.5-3.2-1.3-4.2-.9-1-2.1-1.6-3.7-1.6s-2.8.5-3.7 1.6c-.8 1-1.3 2.4-1.3 4.2 0 1.8.5 3.2 1.3 4.2.9 1 2.1 1.6 3.7 1.6zm26.2 1.9l-5.8-8.4-2.6 2.5v5.9h-4v-26.5h4v16l8-8.2h4.7l-7.2 7.3 7.7 11.4h-4.8zm25.1-8.6h-13.3c.1 1.6.6 2.9 1.6 3.8 1 1 2.3 1.5 3.8 1.5.9 0 1.8-.2 2.6-.5a6 6 0 0 0 2-1.4l2.3 2a8.1 8.1 0 0 1-7.3 3.2c-1.6 0-3.1-.3-4.4-1a7.6 7.6 0 0 1-3.1-2.8 7.8 7.8 0 0 1-1.1-4.4c0-1.7.3-3.2 1-4.5a7.6 7.6 0 0 1 2.9-2.9 8 8 0 0 1 4.1-1c1.5 0 2.8.3 3.9.9a6.7 6.7 0 0 1 2.7 2.8c.7 1.2 1 2.6 1 4.3l-.1.6c-.1.1-.1.2-.1.4zm-12-5.5a4.7 4.7 0 0 0-1.3 3.1h9.3c0-1.2-.4-2.2-1.2-3s-1.7-1.2-3-1.2c-1.3 0-2.4.4-3.3 1.1zm25.1 14h-3.3l-5.9-18.6h4.2l3.7 13.1 3.7-13.1h4l-6.4 18.7zm19-18.6h4v18.7h-3.7l-.2-2.6a7 7 0 0 1-6.7 3.1c-1.1 0-2-.2-2.8-.6a4.7 4.7 0 0 1-1.8-1.5 6.3 6.3 0 0 1-.9-2.4 26 26 0 0 1-.3-3.1v-11.6h4v11.7c0 1.7.3 2.9.8 3.6.5.7 1.4 1.1 2.5 1.1.6 0 1.3-.1 1.9-.4.7-.2 1.3-.6 1.8-1a4.8 4.8 0 0 0 1.3-1.7v-13.4zm26.9 8.9v9.8h-4v-18.7h3.7l.2 2.4a7.3 7.3 0 0 1 2.5-2.1c1.1-.5 2.3-.8 3.7-.8 1.3 0 2.3.3 3.3.8.9.5 1.6 1.2 2.2 2 .6.9 1 1.8 1.2 2.8.3 1 .4 2.1.4 3.1v10.5h-4v-10c0-1-.1-1.9-.4-2.6a3.8 3.8 0 0 0-1.3-1.7c-.5-.4-1.3-.6-2.2-.6a5.5 5.5 0 0 0-2.5.6 5.6 5.6 0 0 0-2 1.6v-2.3h-.8v5.2zm36.9-5.3h-6.9v15.1h-4v-15.1h-4v-3.5h4v-2.1c0-2 .5-3.5 1.5-4.5 1-1 2.4-1.5 4.2-1.5.6 0 1.1 0 1.7.1.5.2 1 .3 1.5.6l-.8 3a4.9 4.9 0 0 0-2-.4c-.7 0-1.3.2-1.6.7-.4.4-.6 1-.6 1.8v2.3h6.9v3.5zm8.9 15.8c-1.3 0-2.5-.2-3.7-.5a9.3 9.3 0 0 1-3.1-1.7l1.5-2.8a9.3 9.3 0 0 0 2.6 1.4c1 .4 2 .5 3 .5 1 0 1.8-.1 2.3-.5.4-.4.7-.8.7-1.4 0-.5-.2-.8-.6-1.1-.4-.3-.9-.5-1.4-.7l-1.8-.4a15.2 15.2 0 0 1-3-.8 5.6 5.6 0 0 1-2.2-1.4c-.6-.6-.9-1.5-.9-2.6 0-1 .2-1.9.7-2.7a5.3 5.3 0 0 1 2.3-1.9c1-.5 2.2-.7 3.6-.7 1.1 0 2.2.1 3.2.4 1 .3 1.9.7 2.8 1.2l-1.5 2.8a9 9 0 0 0-4.5-1.5c-1 0-1.8.2-2.2.5-.5.4-.7.8-.7 1.4 0 .4.2.8.6 1.1l1.5.7c.6.2 1.2.3 1.8.5 1.2.2 2.2.5 3 .8.9.3 1.6.8 2.1 1.4.5.6.8 1.4.8 2.5 0 1-.3 1.9-.8 2.6-.5.8-1.2 1.4-2.3 1.9-1 .5-2.2.7-3.6.7zm23.4 0a7.3 7.3 0 0 1-7.1-4.4c-.7-1.3-1-2.7-1-4.4 0-1.7.3-3.2 1-4.4a7.3 7.3 0 0 1 2.9-2.8c1.3-.7 2.7-1 4.2-1 1.6 0 3 .3 4.2 1a7.3 7.3 0 0 1 3 2.8c.7 1.2 1 2.7 1 4.4 0 1.7-.3 3.2-1 4.4a7.3 7.3 0 0 1-3 2.8c-1.2.7-2.6 1-4.2 1zm0-2.8c1.6 0 2.8-.5 3.6-1.6.9-1 1.3-2.4 1.3-4.2 0-1.8-.4-3.2-1.3-4.2-.8-1-2-1.6-3.6-1.6s-2.8.5-3.7 1.6c-.8 1-1.3 2.4-1.3 4.2 0 1.8.5 3.2 1.3 4.2.9 1 2.1 1.6 3.7 1.6zm21 1.9h-3.3l-6-18.7h4.3l3.7 13.2 3.7-13.2h4l-6.4 18.7zm19 1c-1.6 0-3-.4-4.3-1a7.3 7.3 0 0 1-2.9-2.9c-.7-1.2-1-2.7-1-4.4 0-1.7.3-3.2 1-4.4a7.3 7.3 0 0 1 2.9-2.9c1.3-.7 2.7-1 4.3-1 1.6 0 3 .3 4.2 1a7.3 7.3 0 0 1 3 2.9c.7 1.2 1 2.7 1 4.4 0 1.7-.3 3.2-1 4.4a7.3 7.3 0 0 1-3 2.9c-1.2.6-2.6 1-4.2 1zm0-2.8c1.6 0 2.8-.5 3.7-1.6.8-1 1.3-2.4 1.3-4.2 0-1.8-.5-3.2-1.3-4.2-.9-1-2.1-1.6-3.7-1.6s-2.8.5-3.7 1.6c-.8 1-1.3 2.4-1.3 4.2 0 1.8.5 3.2 1.3 4.2.9 1 2.1 1.6 3.7 1.6zm20.4 1.9h-4v-18.7h3.7l.2 2.8a7.4 7.4 0 0 1 2.8-2.4c1.1-.6 2.4-.8 3.8-.8 1.1 0 2 .1 2.8.5a4 4 0 0 1 1.8 1.5c.3.7.5 1.5.8 2.4.2.9.3 2 .3 3.2v11.5h-4v-11.7c0-1.7-.3-2.9-.8-3.6-.5-.7-1.3-1.1-2.5-1.1-.6 0-1.3.1-1.9.4-.7.3-1.3.6-1.8 1.1a6.3 6.3 0 0 0-1.4 1.6v13.3z" fill="#1E88C9"/>
</svg>