<?xml version="1.0" encoding="UTF-8" standalone="no"?>
<svg width="500" height="200" viewBox="0 0 500 200" xmlns="http://www.w3.org/2000/svg">
  <g fill="none">
    <!-- S letter -->
    <path d="M63.5 45.5c-5.9-1.8-12.3-2.7-19-2.7-24 0-40.5 11.5-40.5 35.2 0 25.7 19 35.2 40.5 35.2 7.2 0 13.5-1 19-2.7v-24.8c-4 2.4-8.5 3.7-13.4 3.7-10.3 0-17.6-4.6-17.6-15 0-10.4 7.3-14.9 17.6-14.9 5 0 9.4 1.3 13.4 3.7V45.5z" fill="#363377"/>
    <!-- M letter -->
    <path d="M153.2 45.5L96.9 110.9v-68h-26.7v138.3l26.7-21.5 56.3-65.3v66.9h26.7V44.4l-26.7 21.5V45.5z" fill="#363377"/>
    <!-- G letter with blue section -->
    <path d="M189.9 113.3L270.3 45l-47.5 89.6 44.7-1.7-77.3 67.2 43.9-86.8h-44.2z" fill="#1E88C9"/>
    <path d="M305.3 114.7c0-24-17.2-29.6-36.1-32.9-11.3-2-17.6-3.3-17.6-9.6 0-5.1 7.4-7.5 13.4-7.5 8.7 0 16.4 2.7 23.4 8l10.4-21c-8.1-5.8-19.8-8.8-33.4-8.8-22.5 0-40.5 9.8-40.5 31.8 0 21.5 15.8 27.8 35 31.1 12.6 2.3 18.7 3.6 18.7 10.4 0 5.6-6.4 8.6-14.5 8.6-10.6 0-20.1-3.3-28.9-10.1l-10.9 20.7c9.8 8 25.1 12 39.4 12 25.4 0 41.6-11.3 41.6-32.7" fill="#363377"/>
    
    <!-- SYNERGIE MARKETING GROUP text -->
    <path d="M47.5 180h-1.68c-0.32-0.85-0.74-1.62-1.26-2.31-0.52-0.69-1.13-1.28-1.83-1.77-0.7-0.49-1.48-0.87-2.34-1.14-0.86-0.27-1.79-0.4-2.79-0.4-1.73 0-3.27 0.38-4.62 1.14-1.35 0.76-2.48 1.82-3.39 3.18-0.91 1.36-1.61 2.97-2.1 4.83-0.49 1.86-0.73 3.89-0.73 6.09 0 2.06 0.23 3.97 0.69 5.73 0.46 1.76 1.12 3.28 1.98 4.56 0.86 1.28 1.91 2.27 3.15 2.97 1.24 0.7 2.65 1.05 4.23 1.05 2.14 0 3.91-0.6 5.31-1.8 1.4-1.2 2.45-2.89 3.15-5.07h1.68c-0.38 1.22-0.89 2.33-1.53 3.33-0.64 1-1.4 1.86-2.28 2.58-0.88 0.72-1.87 1.28-2.97 1.68-1.1 0.4-2.29 0.6-3.57 0.6-1.95 0-3.71-0.42-5.28-1.26-1.57-0.84-2.91-2-4.02-3.48-1.11-1.48-1.96-3.22-2.55-5.22-0.59-2-0.88-4.17-0.88-6.51 0-2.38 0.31-4.6 0.92-6.66 0.61-2.06 1.49-3.84 2.64-5.34 1.15-1.5 2.55-2.67 4.2-3.51 1.65-0.84 3.51-1.26 5.58-1.26 1.22 0 2.38 0.18 3.48 0.54 1.1 0.36 2.1 0.86 3 1.5 0.9 0.64 1.68 1.4 2.34 2.28 0.66 0.88 1.16 1.83 1.5 2.85h1.68v-7.35h1.47v7.35h-1.47zM78.35 180h-15.12v13.2c0 0.85 0.1 1.56 0.3 2.13 0.2 0.57 0.47 1.03 0.81 1.38 0.34 0.35 0.75 0.6 1.23 0.75 0.48 0.15 1 0.22 1.56 0.22 0.52 0 1.05-0.1 1.59-0.3 0.54-0.2 1.03-0.5 1.47-0.9 0.44-0.4 0.8-0.9 1.08-1.5 0.28-0.6 0.42-1.28 0.42-2.04h1.68c0 1.06-0.22 2-0.66 2.82-0.44 0.82-1.02 1.51-1.74 2.07-0.72 0.56-1.54 0.98-2.46 1.26-0.92 0.28-1.88 0.42-2.88 0.42-0.9 0-1.77-0.13-2.61-0.39-0.84-0.26-1.58-0.68-2.22-1.26-0.64-0.58-1.15-1.32-1.53-2.22-0.38-0.9-0.57-2-0.57-3.3v-12.34h-2.94v-1.5h2.94v-7.35h1.65v7.35h15.12v1.5zM103.11 171.14c1.16 0.86 2.07 2.09 2.73 3.69 0.66 1.6 0.99 3.53 0.99 5.79 0 2.26-0.33 4.19-0.99 5.79-0.66 1.6-1.57 2.83-2.73 3.69-1.16 0.86-2.49 1.29-3.99 1.29-1.5 0-2.82-0.43-3.96-1.29-1.14-0.86-2.05-2.09-2.73-3.69-0.68-1.6-1.02-3.53-1.02-5.79 0-2.26 0.34-4.19 1.02-5.79 0.68-1.6 1.59-2.83 2.73-3.69 1.14-0.86 2.46-1.29 3.96-1.29 1.5 0 2.83 0.43 3.99 1.29zM92.8 172.37c-0.92 0.75-1.65 1.84-2.19 3.27-0.54 1.43-0.81 3.14-0.81 5.13 0 1.99 0.27 3.69 0.81 5.1 0.54 1.41 1.27 2.49 2.19 3.24 0.92 0.75 1.98 1.12 3.18 1.12 1.2 0 2.25-0.37 3.15-1.12 0.9-0.75 1.62-1.83 2.16-3.24 0.54-1.41 0.81-3.11 0.81-5.1 0-1.99-0.27-3.7-0.81-5.13-0.54-1.43-1.26-2.52-2.16-3.27-0.9-0.75-1.95-1.12-3.15-1.12-1.2 0-2.26 0.37-3.18 1.12zM142.71 172.52c0.91 1.33 1.36 3.28 1.36 5.85v13.11h-1.65v-13.11c0-1.2-0.14-2.24-0.42-3.12-0.28-0.88-0.66-1.62-1.14-2.22-0.48-0.6-1.04-1.05-1.68-1.35-0.64-0.3-1.33-0.45-2.07-0.45-0.9 0-1.77 0.21-2.61 0.63-0.84 0.42-1.59 1.01-2.25 1.77-0.66 0.76-1.18 1.66-1.56 2.7-0.38 1.04-0.57 2.17-0.57 3.39v11.76h-1.65v-13.11c0-1.2-0.15-2.24-0.45-3.12-0.3-0.88-0.68-1.62-1.14-2.22-0.46-0.6-1.02-1.05-1.68-1.35-0.66-0.3-1.34-0.45-2.04-0.45-0.9 0-1.77 0.21-2.61 0.63-0.84 0.42-1.59 1.01-2.25 1.77-0.66 0.76-1.18 1.66-1.56 2.7-0.38 1.04-0.57 2.17-0.57 3.39v11.76h-1.65v-21.75h1.56v4.65h0.09c0.42-0.82 0.95-1.55 1.59-2.19 0.64-0.64 1.39-1.15 2.25-1.53 0.86-0.38 1.8-0.57 2.82-0.57 1.42 0 2.63 0.34 3.63 1.02 1 0.68 1.72 1.7 2.16 3.06h0.09c0.48-0.94 1.05-1.74 1.71-2.4 0.66-0.66 1.43-1.17 2.31-1.53 0.88-0.36 1.85-0.54 2.91-0.54 1.12 0 2.1 0.21 2.94 0.63 0.84 0.42 1.54 1.01 2.1 1.77 0.56 0.76 0.98 1.67 1.26 2.73zM151.54 170.17c-0.38-0.38-0.57-0.84-0.57-1.38 0-0.54 0.19-1 0.57-1.38 0.38-0.38 0.84-0.57 1.38-0.57 0.54 0 1 0.19 1.38 0.57 0.38 0.38 0.57 0.84 0.57 1.38 0 0.54-0.19 1-0.57 1.38-0.38 0.38-0.84 0.57-1.38 0.57-0.54 0-1-0.19-1.38-0.57zM153.1 191.48h-1.65v-21.75h1.65v21.75zM171.51 170.2c0.96 0.52 1.72 1.27 2.28 2.25 0.56 0.98 0.84 2.17 0.84 3.57 0 1.4-0.28 2.59-0.84 3.57-0.56 0.98-1.32 1.73-2.28 2.25-0.96 0.52-2.04 0.78-3.24 0.78h-7.02v8.85h-1.65v-22.05h8.67c1.2 0 2.28 0.26 3.24 0.78zM172.98 175.91c0-1.06-0.2-1.97-0.6-2.73-0.4-0.76-0.95-1.34-1.65-1.74-0.7-0.4-1.5-0.6-2.4-0.6h-7.08v10.02h7.08c0.9 0 1.7-0.19 2.4-0.57 0.7-0.38 1.25-0.95 1.65-1.71 0.4-0.76 0.6-1.68 0.6-2.76zM191.77 171.14c1.16 0.86 2.07 2.09 2.73 3.69 0.66 1.6 0.99 3.53 0.99 5.79 0 2.26-0.33 4.19-0.99 5.79-0.66 1.6-1.57 2.83-2.73 3.69-1.16 0.86-2.49 1.29-3.99 1.29-1.5 0-2.82-0.43-3.96-1.29-1.14-0.86-2.05-2.09-2.73-3.69-0.68-1.6-1.02-3.53-1.02-5.79 0-2.26 0.34-4.19 1.02-5.79 0.68-1.6 1.59-2.83 2.73-3.69 1.14-0.86 2.46-1.29 3.96-1.29 1.5 0 2.83 0.43 3.99 1.29zM181.46 172.37c-0.92 0.75-1.65 1.84-2.19 3.27-0.54 1.43-0.81 3.14-0.81 5.13 0 1.99 0.27 3.69 0.81 5.1 0.54 1.41 1.27 2.49 2.19 3.24 0.92 0.75 1.98 1.12 3.18 1.12 1.2 0 2.25-0.37 3.15-1.12 0.9-0.75 1.62-1.83 2.16-3.24 0.54-1.41 0.81-3.11 0.81-5.1 0-1.99-0.27-3.7-0.81-5.13-0.54-1.43-1.26-2.52-2.16-3.27-0.9-0.75-1.95-1.12-3.15-1.12-1.2 0-2.26 0.37-3.18 1.12zM217.5 169.73h1.65v21.75h-1.65v-19.5l-9.84 13.05h-0.09l-9.84-13.05v19.5h-1.65v-21.75h1.65l9.93 13.2 9.84-13.2zM247.34 191.48h-1.65v-19.47l-12.75 19.47h-1.65v-21.75h1.65v19.47l12.75-19.47h1.65v21.75zM265.37 170.87c0.66 0.78 0.99 1.89 0.99 3.33 0 1.44-0.48 2.58-1.44 3.42-0.96 0.84-2.25 1.26-3.87 1.26h-7.47v12.6h-1.65v-22.05h9.12c1.94 0 3.32 0.48 4.32 1.44zM264.71 175.97c0-0.9-0.32-1.62-0.96-2.16-0.64-0.54-1.53-0.81-2.67-0.81h-7.5v5.94h7.5c1.14 0 2.03-0.27 2.67-0.81 0.64-0.54 0.96-1.26 0.96-2.16zM284.13 191.48h-1.83l-10.86-21.75h1.83l9.45 19.35 9.45-19.35h1.83l-10.86 21.75zM309.47 170.2c0.96 0.52 1.72 1.27 2.28 2.25 0.56 0.98 0.84 2.17 0.84 3.57 0 1.4-0.28 2.59-0.84 3.57-0.56 0.98-1.32 1.73-2.28 2.25-0.96 0.52-2.04 0.78-3.24 0.78h-7.02v8.85h-1.65v-22.05h8.67c1.2 0 2.28 0.26 3.24 0.78zM310.94 175.91c0-1.06-0.2-1.97-0.6-2.73-0.4-0.76-0.95-1.34-1.65-1.74-0.7-0.4-1.5-0.6-2.4-0.6h-7.08v10.02h7.08c0.9 0 1.7-0.19 2.4-0.57 0.7-0.38 1.25-0.95 1.65-1.71 0.4-0.76 0.6-1.68 0.6-2.76zM320.09 172.91v9.99c0 1.06 0.12 1.94 0.36 2.64 0.24 0.7 0.57 1.22 0.99 1.56 0.42 0.34 0.92 0.51 1.5 0.51 0.31 0 0.61-0.03 0.9-0.09 0.29-0.06 0.56-0.15 0.81-0.27v1.5c-0.25 0.12-0.54 0.21-0.87 0.27-0.33 0.06-0.64 0.09-0.93 0.09-0.94 0-1.76-0.25-2.46-0.75-0.7-0.5-1.23-1.21-1.59-2.13-0.36-0.92-0.54-2.01-0.54-3.27v-10.05h-2.94v-1.5h2.94v-4.8h1.65v4.8h4.56v1.5h-4.56zM342.85 169.73h1.65v21.75h-1.56v-4.65h-0.09c-0.46 0.86-1.02 1.6-1.68 2.22-0.66 0.62-1.43 1.1-2.31 1.44-0.88 0.34-1.86 0.51-2.94 0.51-1.16 0-2.21-0.22-3.15-0.66-0.94-0.44-1.74-1.07-2.4-1.89-0.66-0.82-1.17-1.8-1.53-2.94-0.36-1.14-0.54-2.42-0.54-3.84v-11.94h1.65v11.94c0 1.2 0.14 2.27 0.42 3.21 0.28 0.94 0.66 1.73 1.14 2.37 0.48 0.64 1.06 1.13 1.74 1.47 0.68 0.34 1.41 0.51 2.19 0.51 0.98 0 1.9-0.23 2.76-0.69 0.86-0.46 1.62-1.08 2.28-1.86 0.66-0.78 1.18-1.69 1.56-2.73 0.38-1.04 0.57-2.14 0.57-3.3v-10.92zM363.88 169.73h1.65v21.75h-1.56v-4.65h-0.09c-0.46 0.86-1.02 1.6-1.68 2.22-0.66 0.62-1.43 1.1-2.31 1.44-0.88 0.34-1.86 0.51-2.94 0.51-1.16 0-2.21-0.22-3.15-0.66-0.94-0.44-1.74-1.07-2.4-1.89-0.66-0.82-1.17-1.8-1.53-2.94-0.36-1.14-0.54-2.42-0.54-3.84v-11.94h1.65v11.94c0 1.2 0.14 2.27 0.42 3.21 0.28 0.94 0.66 1.73 1.14 2.37 0.48 0.64 1.06 1.13 1.74 1.47 0.68 0.34 1.41 0.51 2.19 0.51 0.98 0 1.9-0.23 2.76-0.69 0.86-0.46 1.62-1.08 2.28-1.86 0.66-0.78 1.18-1.69 1.56-2.73 0.38-1.04 0.57-2.14 0.57-3.3v-10.92zM388.9 171.11c1.15 0.86 2.06 2.09 2.73 3.69 0.67 1.6 1 3.53 1 5.79 0 2.26-0.33 4.19-1 5.79-0.67 1.6-1.58 2.83-2.73 3.69-1.15 0.86-2.48 1.29-3.99 1.29-1.02 0-1.96-0.18-2.82-0.54a7.08 7.08 0 0 1-2.28-1.53c-0.66-0.66-1.19-1.46-1.59-2.4h-0.09v10.5h-1.65v-27.9h1.56v4.65h0.09c0.4-0.94 0.93-1.74 1.59-2.4 0.66-0.66 1.42-1.17 2.28-1.53 0.86-0.36 1.8-0.54 2.82-0.54 1.5 0 2.84 0.43 3.99 1.29zM378.59 172.37c-0.92 0.75-1.65 1.84-2.19 3.27-0.54 1.43-0.81 3.14-0.81 5.13 0 1.99 0.27 3.69 0.81 5.1 0.54 1.41 1.27 2.49 2.19 3.24 0.92 0.75 1.98 1.12 3.18 1.12 1.2 0 2.25-0.37 3.15-1.12 0.9-0.75 1.62-1.83 2.16-3.24 0.54-1.41 0.81-3.11 0.81-5.1 0-1.99-0.27-3.7-0.81-5.13-0.54-1.43-1.26-2.52-2.16-3.27-0.9-0.75-1.95-1.12-3.15-1.12-1.2 0-2.26 0.37-3.18 1.12zM409.78 171.65c1.03 1.07 1.55 2.59 1.55 4.56v15.27h-1.65v-14.85c0-1.56-0.39-2.79-1.17-3.69-0.78-0.9-1.88-1.35-3.3-1.35-0.84 0-1.65 0.18-2.43 0.54-0.78 0.36-1.47 0.86-2.07 1.5-0.6 0.64-1.07 1.41-1.41 2.31-0.34 0.9-0.51 1.89-0.51 2.97v12.57h-1.65v-21.75h1.56v4.2h0.09c0.38-0.74 0.86-1.39 1.44-1.95 0.58-0.56 1.27-1 2.07-1.32 0.8-0.32 1.69-0.48 2.67-0.48 2.1 0 3.78 0.53 5.01 1.59zM431.52 170.17c-0.38-0.38-0.57-0.84-0.57-1.38 0-0.54 0.19-1 0.57-1.38 0.38-0.38 0.84-0.57 1.38-0.57 0.54 0 1 0.19 1.38 0.57 0.38 0.38 0.57 0.84 0.57 1.38 0 0.54-0.19 1-0.57 1.38-0.38 0.38-0.84 0.57-1.38 0.57-0.54 0-1-0.19-1.38-0.57zM433.08 191.48h-1.65v-21.75h1.65v21.75zM452.37 170.2c0.96 0.52 1.72 1.27 2.28 2.25 0.56 0.98 0.84 2.17 0.84 3.57 0 1.4-0.28 2.59-0.84 3.57-0.56 0.98-1.32 1.73-2.28 2.25-0.96 0.52-2.04 0.78-3.24 0.78h-7.02v8.85h-1.65v-22.05h8.67c1.2 0 2.28 0.26 3.24 0.78zM453.84 175.91c0-1.06-0.2-1.97-0.6-2.73-0.4-0.76-0.95-1.34-1.65-1.74-0.7-0.4-1.5-0.6-2.4-0.6h-7.08v10.02h7.08c0.9 0 1.7-0.19 2.4-0.57 0.7-0.38 1.25-0.95 1.65-1.71 0.4-0.76 0.6-1.68 0.6-2.76z" fill="#1E88C9"/>
  </g>
</svg>