<?xml version="1.0" encoding="UTF-8" standalone="no"?>
<svg width="500" height="220" viewBox="0 0 500 220" xmlns="http://www.w3.org/2000/svg">
  <g>
    <!-- SMG en bleu foncé et bleu clair -->
    <path d="M63.5 45.5c-5.9-1.8-12.3-2.7-19-2.7-24 0-40.5 11.5-40.5 35.2 0 25.7 19 35.2 40.5 35.2 7.2 0 13.5-1 19-2.7v-24.8c-4 2.4-8.5 3.7-13.4 3.7-10.3 0-17.6-4.6-17.6-15 0-10.4 7.3-14.9 17.6-14.9 5 0 9.4 1.3 13.4 3.7V45.5z" fill="#363377"/>
    <path d="M153.2 45.5L96.9 110.9v-68h-26.7v138.3l26.7-21.5 56.3-65.3v66.9h26.7V44.4l-26.7 21.5V45.5z" fill="#363377"/>
    <path d="M189.9 113.3L270.3 45l-47.5 89.6 44.7-1.7-77.3 67.2 43.9-86.8h-44.2z" fill="#1E88C9"/>
    <path d="M305.3 114.7c0-24-17.2-29.6-36.1-32.9-11.3-2-17.6-3.3-17.6-9.6 0-5.1 7.4-7.5 13.4-7.5 8.7 0 16.4 2.7 23.4 8l10.4-21c-8.1-5.8-19.8-8.8-33.4-8.8-22.5 0-40.5 9.8-40.5 31.8 0 21.5 15.8 27.8 35 31.1 12.6 2.3 18.7 3.6 18.7 10.4 0 5.6-6.4 8.6-14.5 8.6-10.6 0-20.1-3.3-28.9-10.1l-10.9 20.7c9.8 8 25.1 12 39.4 12 25.4 0 41.6-11.3 41.6-32.7" fill="#363377"/>
    
    <!-- SYNERGIE MARKETING GROUP -->
    <path d="M47 185c-0.8 0-1.5-0.1-2.2-0.3-0.7-0.2-1.3-0.4-1.9-0.7-0.6-0.3-1.1-0.7-1.5-1.1-0.4-0.4-0.7-0.9-0.9-1.4h-0.1l0.1 3.3v5.7h-3.2v-24.3h2.7l0.3 2.8h0.1c0.2-0.5 0.5-1 0.9-1.4 0.4-0.4 0.9-0.8 1.5-1.1 0.6-0.3 1.2-0.6 1.9-0.7 0.7-0.2 1.5-0.3 2.3-0.3 1.3 0 2.4 0.2 3.4 0.7 1 0.5 1.9 1.2 2.6 2 0.7 0.9 1.2 1.9 1.6 3.2 0.4 1.2 0.6 2.6 0.6 4.1 0 1.5-0.2 2.9-0.6 4.1-0.4 1.2-0.9 2.3-1.6 3.2-0.7 0.9-1.6 1.5-2.6 2-1 0.5-2.2 0.7-3.4 0.7zm-0.6-2.9c0.9 0 1.7-0.2 2.4-0.5 0.7-0.3 1.3-0.8 1.7-1.4 0.5-0.6 0.8-1.3 1.1-2.2 0.2-0.9 0.4-1.8 0.4-2.9 0-1.1-0.1-2-0.4-2.9-0.2-0.9-0.6-1.6-1.1-2.2-0.5-0.6-1-1.1-1.7-1.4-0.7-0.3-1.5-0.5-2.4-0.5-0.9 0-1.7 0.2-2.4 0.5-0.7 0.3-1.3 0.8-1.8 1.4-0.5 0.6-0.8 1.3-1.1 2.2-0.2 0.9-0.4 1.8-0.4 2.9 0 1.1 0.1 2 0.4 2.9 0.2 0.9 0.6 1.6 1.1 2.2 0.5 0.6 1.1 1.1 1.8 1.4 0.7 0.3 1.5 0.5 2.4 0.5zm19.4 2.5h-3.2v-24.2h3.2v10.9l7.9-10.9h3.8l-8.2 10.7 8.9 13.5h-3.9l-7.2-11.4-1.2 1.5v9.9zm25.3 0.3c-1.3 0-2.5-0.2-3.5-0.7-1-0.5-1.9-1.1-2.6-2-0.7-0.9-1.3-1.9-1.6-3.1-0.4-1.2-0.6-2.6-0.6-4.1 0-1.5 0.2-2.9 0.6-4.1 0.4-1.2 0.9-2.3 1.6-3.1 0.7-0.9 1.6-1.5 2.6-2 1-0.5 2.2-0.7 3.5-0.7 1.3 0 2.5 0.2 3.5 0.7 1 0.5 1.9 1.1 2.6 2 0.7 0.9 1.3 1.9 1.6 3.1 0.4 1.2 0.6 2.6 0.6 4.1 0 1.5-0.2 2.9-0.6 4.1-0.4 1.2-0.9 2.3-1.6 3.1-0.7 0.9-1.6 1.5-2.6 2-1 0.5-2.2 0.7-3.5 0.7zm0-2.9c0.9 0 1.7-0.2 2.4-0.5 0.7-0.3 1.2-0.8 1.7-1.4 0.4-0.6 0.8-1.3 1-2.2 0.2-0.9 0.3-1.8 0.3-2.9 0-1.1-0.1-2-0.3-2.9-0.2-0.9-0.5-1.6-1-2.2-0.4-0.6-1-1.1-1.7-1.4-0.7-0.3-1.5-0.5-2.4-0.5-0.9 0-1.7 0.2-2.4 0.5-0.7 0.3-1.2 0.8-1.7 1.4-0.4 0.6-0.8 1.3-1 2.2-0.2 0.9-0.3 1.8-0.3 2.9 0 1.1 0.1 2 0.3 2.9 0.2 0.9 0.5 1.6 1 2.2 0.4 0.6 1 1.1 1.7 1.4 0.7 0.3 1.5 0.5 2.4 0.5zm16.6 2.6h-3.2v-17.8h3.2v17.8zm-1.6-22.2c-0.6 0-1.1-0.2-1.5-0.5-0.4-0.3-0.6-0.8-0.6-1.4 0-0.6 0.2-1 0.6-1.4 0.4-0.3 0.9-0.5 1.5-0.5 0.6 0 1.1 0.2 1.5 0.5 0.4 0.3 0.6 0.8 0.6 1.4 0 0.6-0.2 1-0.6 1.4-0.4 0.3-0.9 0.5-1.5 0.5zm11.1 22.2h-3.2v-24.2h3.2v24.2zm11.9 0.3c-1 0-1.9-0.1-2.7-0.4-0.8-0.3-1.5-0.7-2.1-1.2-0.6-0.5-1-1.1-1.3-1.9-0.3-0.7-0.5-1.6-0.5-2.5 0-1 0.2-1.8 0.6-2.5 0.4-0.7 0.9-1.3 1.6-1.7 0.7-0.4 1.5-0.8 2.4-1 0.9-0.2 1.9-0.3 3-0.3 0.8 0 1.5 0 2.2 0.1 0.7 0.1 1.3 0.2 1.9 0.4v-0.9c0-1.1-0.3-2-1-2.6-0.7-0.6-1.6-0.9-2.9-0.9-0.9 0-1.7 0.1-2.5 0.3-0.8 0.2-1.6 0.5-2.5 0.9l-1-2.2c1-0.5 2-0.8 3-1 1-0.2 2-0.3 3-0.3 2.1 0 3.8 0.5 4.9 1.6 1.1 1.1 1.7 2.6 1.7 4.6v6.4c0 0.5 0.1 0.9 0.2 1.1 0.1 0.2 0.4 0.3 0.7 0.4v2.6c-0.3 0.1-0.6 0.1-0.9 0.1-0.3 0-0.5 0-0.7 0-0.7 0-1.2-0.1-1.5-0.4-0.3-0.3-0.5-0.7-0.6-1.1l-0.1-1.1c-0.7 0.9-1.5 1.5-2.5 2-1 0.5-2 0.8-3.2 0.8zm0.7-2.6c0.9 0 1.7-0.2 2.4-0.5 0.7-0.3 1.3-0.8 1.6-1.3 0.2-0.3 0.3-0.7 0.3-1.1v-2.4c-0.5-0.2-1.1-0.3-1.7-0.4-0.6-0.1-1.2-0.1-1.9-0.1-1.2 0-2.2 0.2-3 0.7-0.8 0.5-1.2 1.2-1.2 2.1 0 0.4 0.1 0.8 0.2 1.1 0.2 0.3 0.4 0.6 0.6 0.8 0.3 0.2 0.6 0.4 1 0.5 0.4 0.1 0.8 0.2 1.3 0.2 0.1 0 0.2 0 0.4 0zm17 2.3h-3.2v-13.3h-2.7v-2.5h2.7v-1.3c0-2.1 0.5-3.7 1.5-4.8 1-1.1 2.4-1.6 4.3-1.6 0.4 0 0.9 0 1.3 0.1 0.4 0.1 0.8 0.2 1.1 0.3l-0.5 2.5c-0.2-0.1-0.5-0.1-0.7-0.2-0.2 0-0.5-0.1-0.9-0.1-0.9 0-1.6 0.3-2 0.9-0.4 0.6-0.6 1.4-0.6 2.5v1.5h3.8v2.5h-3.8v13.5zm17 0.3c-1.3 0-2.5-0.2-3.5-0.7-1-0.5-1.9-1.1-2.6-2-0.7-0.9-1.3-1.9-1.6-3.1-0.4-1.2-0.6-2.6-0.6-4.1 0-1.5 0.2-2.9 0.6-4.1 0.4-1.2 0.9-2.3 1.6-3.1 0.7-0.9 1.6-1.5 2.6-2 1-0.5 2.2-0.7 3.5-0.7 1.3 0 2.5 0.2 3.5 0.7 1 0.5 1.9 1.1 2.6 2 0.7 0.9 1.3 1.9 1.6 3.1 0.4 1.2 0.6 2.6 0.6 4.1 0 1.5-0.2 2.9-0.6 4.1-0.4 1.2-0.9 2.3-1.6 3.1-0.7 0.9-1.6 1.5-2.6 2-1 0.5-2.2 0.7-3.5 0.7zm0-2.9c0.9 0 1.7-0.2 2.4-0.5 0.7-0.3 1.2-0.8 1.7-1.4 0.4-0.6 0.8-1.3 1-2.2 0.2-0.9 0.3-1.8 0.3-2.9 0-1.1-0.1-2-0.3-2.9-0.2-0.9-0.5-1.6-1-2.2-0.4-0.6-1-1.1-1.7-1.4-0.7-0.3-1.5-0.5-2.4-0.5-0.9 0-1.7 0.2-2.4 0.5-0.7 0.3-1.2 0.8-1.7 1.4-0.4 0.6-0.8 1.3-1 2.2-0.2 0.9-0.3 1.8-0.3 2.9 0 1.1 0.1 2 0.3 2.9 0.2 0.9 0.5 1.6 1 2.2 0.4 0.6 1 1.1 1.7 1.4 0.7 0.3 1.5 0.5 2.4 0.5zm28-14.9h-5.7v17.5h-3.2v-17.5h-5.7v-2.8h14.6v2.8zm21.2 7.8h-12.2c0 1.1 0.2 2 0.5 2.9 0.3 0.8 0.7 1.5 1.2 2.1 0.5 0.6 1.1 1 1.9 1.3 0.7 0.3 1.5 0.4 2.4 0.4 1.2 0 2.2-0.2 3-0.6 0.9-0.4 1.6-0.9 2.3-1.6l1.7 1.9c-0.8 0.9-1.7 1.6-2.9 2.1-1.1 0.5-2.4 0.7-3.9 0.7-1.3 0-2.4-0.2-3.4-0.7-1-0.4-1.9-1.1-2.6-1.9-0.7-0.8-1.2-1.8-1.6-3-0.4-1.2-0.6-2.5-0.6-3.9 0-1.4 0.2-2.8 0.5-4 0.4-1.2 0.9-2.3 1.5-3.2 0.7-0.9 1.5-1.6 2.4-2.1 1-0.5 2-0.8 3.2-0.8 1.2 0 2.2 0.2 3.1 0.6 0.9 0.4 1.7 0.9 2.3 1.7 0.6 0.7 1.1 1.6 1.4 2.6 0.3 1 0.5 2.2 0.5 3.4 0 0.3 0 0.5 0 0.7 0 0.2 0 0.3-0.1 0.4zm-12.2-2.3h9.5c0-1.9-0.4-3.4-1.2-4.3-0.8-1-1.9-1.5-3.4-1.5-1.3 0-2.4 0.5-3.3 1.4-0.9 0.9-1.4 2.4-1.6 4.4zm25 11.9c-1.1 0-2.1-0.2-3-0.6-0.9-0.4-1.7-0.9-2.4-1.5-0.7-0.7-1.2-1.5-1.5-2.4-0.4-0.9-0.5-1.9-0.5-3v-13.1h3.2v12.8c0 1.5 0.4 2.7 1.1 3.5 0.7 0.8 1.8 1.2 3.1 1.2 0.6 0 1.2-0.1 1.7-0.3 0.6-0.2 1.1-0.5 1.5-0.9 0.4-0.4 0.8-0.9 1-1.5 0.3-0.6 0.4-1.2 0.4-2v-12.8h3.2v17.8h-2.7l-0.3-2.4h-0.1c-0.3 0.5-0.7 0.9-1.1 1.3-0.4 0.4-0.9 0.7-1.4 0.9-0.5 0.2-1 0.4-1.6 0.5-0.6 0.1-1.1 0.2-1.7 0.2zm20.2 0c-1.3 0-2.5-0.2-3.5-0.7-1-0.5-1.9-1.1-2.6-2-0.7-0.9-1.3-1.9-1.6-3.1-0.4-1.2-0.6-2.6-0.6-4.1 0-1.5 0.2-2.9 0.6-4.1 0.4-1.2 0.9-2.3 1.6-3.1 0.7-0.9 1.6-1.5 2.6-2 1-0.5 2.2-0.7 3.5-0.7 1.3 0 2.5 0.2 3.5 0.7 1 0.5 1.9 1.1 2.6 2 0.7 0.9 1.3 1.9 1.7 3.1 0.4 1.2 0.6 2.6 0.6 4.1 0 1.5-0.2 2.9-0.6 4.1-0.4 1.2-0.9 2.3-1.7 3.1-0.7 0.9-1.6 1.5-2.6 2-1 0.5-2.2 0.7-3.5 0.7zm0-2.9c0.9 0 1.7-0.2 2.4-0.5 0.7-0.3 1.2-0.8 1.7-1.4 0.4-0.6 0.8-1.3 1-2.2 0.2-0.9 0.3-1.8 0.3-2.9 0-1.1-0.1-2-0.3-2.9-0.2-0.9-0.5-1.6-1-2.2-0.4-0.6-1-1.1-1.7-1.4-0.7-0.3-1.5-0.5-2.4-0.5-0.9 0-1.7 0.2-2.4 0.5-0.7 0.3-1.2 0.8-1.7 1.4-0.4 0.6-0.8 1.3-1 2.2-0.2 0.9-0.3 1.8-0.3 2.9 0 1.1 0.1 2 0.3 2.9 0.2 0.9 0.5 1.6 1 2.2 0.4 0.6 1 1.1 1.7 1.4 0.7 0.3 1.5 0.5 2.4 0.5zm31.1-17.5h-5.7v17.5h-3.2v-17.5h-5.7v-2.8h14.6v2.8zm22 17.5h-3.2v-10.3c0-1.3-0.3-2.3-0.8-3-0.5-0.7-1.3-1-2.3-1-1 0-1.9 0.3-2.5 0.8-0.7 0.5-1.1 1.2-1.5 2.1v11.4h-3.2v-17.8h2.7l0.3 2.5h0.1c0.5-0.9 1.1-1.6 1.9-2.1 0.8-0.5 1.8-0.8 2.9-0.8 1.8 0 3.1 0.5 4 1.6 0.9 1.1 1.3 2.6 1.3 4.5v11.9zm15.9 0.3c-1 0-1.9-0.1-2.7-0.4-0.8-0.3-1.5-0.7-2.1-1.2-0.6-0.5-1-1.1-1.3-1.9-0.3-0.7-0.5-1.6-0.5-2.5 0-1 0.2-1.8 0.6-2.5 0.4-0.7 0.9-1.3 1.6-1.7 0.7-0.4 1.5-0.8 2.4-1 0.9-0.2 1.9-0.3 3-0.3 0.8 0 1.5 0 2.2 0.1 0.7 0.1 1.3 0.2 1.9 0.4v-0.9c0-1.1-0.3-2-1-2.6-0.7-0.6-1.6-0.9-2.9-0.9-0.9 0-1.7 0.1-2.5 0.3-0.8 0.2-1.6 0.5-2.5 0.9l-1-2.2c1-0.5 2-0.8 3-1 1-0.2 2-0.3 3-0.3 2.1 0 3.8 0.5 4.9 1.6 1.1 1.1 1.7 2.6 1.7 4.6v6.4c0 0.5 0.1 0.9 0.2 1.1 0.1 0.2 0.4 0.3 0.7 0.4v2.6c-0.3 0.1-0.6 0.1-0.9 0.1-0.3 0-0.5 0-0.7 0-0.7 0-1.2-0.1-1.5-0.4-0.3-0.3-0.5-0.7-0.6-1.1l-0.1-1.1c-0.7 0.9-1.5 1.5-2.5 2-1 0.5-2 0.8-3.2 0.8zm0.7-2.6c0.9 0 1.7-0.2 2.4-0.5 0.7-0.3 1.3-0.8 1.6-1.3 0.2-0.3 0.3-0.7 0.3-1.1v-2.4c-0.5-0.2-1.1-0.3-1.7-0.4-0.6-0.1-1.2-0.1-1.9-0.1-1.2 0-2.2 0.2-3 0.7-0.8 0.5-1.2 1.2-1.2 2.1 0 0.4 0.1 0.8 0.2 1.1 0.2 0.3 0.4 0.6 0.6 0.8 0.3 0.2 0.6 0.4 1 0.5 0.4 0.1 0.8 0.2 1.3 0.2 0.1 0 0.2 0 0.4 0zm19.9 2.3h-3.2v-17.8h3.2v17.8zm-1.6-22.2c-0.6 0-1.1-0.2-1.5-0.5-0.4-0.3-0.6-0.8-0.6-1.4 0-0.6 0.2-1 0.6-1.4 0.4-0.3 0.9-0.5 1.5-0.5 0.6 0 1.1 0.2 1.5 0.5 0.4 0.3 0.6 0.8 0.6 1.4 0 0.6-0.2 1-0.6 1.4-0.4 0.3-0.9 0.5-1.5 0.5zm26.5 4.7h2.9v2.5h-2.9v15h-3.2v-15h-2.7v-1.7l2.7-0.8v-0.8c0-1.3 0.2-2.4 0.5-3.3 0.3-0.9 0.8-1.6 1.4-2.2 0.6-0.6 1.3-1 2.1-1.2 0.8-0.2 1.7-0.4 2.7-0.4 0.9 0 1.7 0.1 2.4 0.3 0.7 0.2 1.2 0.4 1.6 0.6l-0.8 2.4c-0.3-0.2-0.7-0.3-1.1-0.5-0.4-0.1-1-0.2-1.6-0.2-1.4 0-2.4 0.4-3 1.2-0.6 0.8-0.9 2-0.9 3.6v0.8z" fill="#1E88C9"/>
  </g>
</svg>